<svg width="1380" height="660" viewBox="430 390 1380 660" fill="none" xmlns="http://www.w3.org/2000/svg">
<path d="M918.195 752.348C985.015 752.348 1039.28 806.093 1040.13 872.713L1040.14 874.289C1040.14 941.109 986.391 995.377 919.771 996.222L918.195 996.231C850.849 996.231 796.253 941.636 796.253 874.289L796.263 872.713C797.1 806.617 850.523 753.195 916.619 752.357L918.195 752.348ZM643.803 828.095C713.37 828.095 769.826 884.43 769.826 953.996C769.826 969.598 757.178 982.246 741.576 982.246C725.974 982.246 713.326 969.598 713.326 953.996C713.326 915.7 682.232 884.595 643.803 884.595C622.869 884.595 604.128 893.795 591.345 908.448C580.694 920.657 574.279 936.546 574.279 953.996C574.279 969.598 561.631 982.246 546.029 982.246C530.427 982.246 517.779 969.598 517.779 953.996C517.779 922.368 529.489 893.407 548.768 871.307C571.834 844.866 605.878 828.095 643.803 828.095ZM918.195 808.847C882.052 808.847 852.753 838.146 852.753 874.289C852.753 910.432 882.052 939.731 918.195 939.731C954.338 939.731 983.637 910.432 983.638 874.289C983.637 838.147 954.338 808.847 918.195 808.847ZM767.01 708.272C859.328 654.417 936.992 653.445 992.673 667.834C1020.11 674.925 1041.58 685.574 1056.34 694.576C1063.73 699.084 1069.48 703.206 1073.51 706.315C1075.52 707.871 1077.11 709.179 1078.27 710.159C1078.85 710.65 1079.32 711.06 1079.67 711.379C1079.85 711.538 1080.01 711.675 1080.13 711.788C1080.19 711.845 1080.25 711.895 1080.3 711.939C1080.32 711.961 1080.34 711.982 1080.37 712.001C1080.38 712.011 1080.39 712.025 1080.4 712.029C1080.41 712.045 1080.2 712.294 1061.24 732.792L1080.42 712.055C1091.87 722.65 1092.57 740.523 1081.98 751.976C1071.55 763.241 1054.09 764.098 1042.62 754.039L1042.1 753.572C1042.12 753.585 1042.13 753.597 1042.14 753.607L1042.17 753.636C1042.11 753.581 1041.95 753.44 1041.69 753.221C1041.17 752.782 1040.27 752.033 1038.99 751.044C1036.42 749.062 1032.36 746.135 1026.91 742.81C1015.99 736.145 999.639 727.991 978.536 722.537C937.128 711.836 874.795 710.805 795.479 757.075C703.161 810.93 625.497 811.903 569.816 797.514C542.376 790.422 520.908 779.774 506.151 770.771C498.762 766.264 493.01 762.142 488.981 759.032C486.965 757.476 485.374 756.169 484.22 755.188C483.642 754.698 483.173 754.288 482.814 753.97C482.635 753.81 482.482 753.673 482.357 753.56C482.295 753.503 482.24 753.453 482.191 753.408C482.167 753.386 482.144 753.366 482.124 753.347C482.114 753.337 482.099 753.323 482.094 753.318C482.08 753.306 482.106 753.251 501.032 732.792L482.066 753.293C470.613 742.698 469.918 724.825 480.513 713.372C491.1 701.928 508.954 701.226 520.408 711.797L520.409 711.796C520.405 711.793 520.394 711.782 520.387 711.775C520.372 711.762 520.359 711.75 520.348 711.74C520.327 711.72 520.31 711.706 520.301 711.697C520.305 711.701 520.311 711.706 520.318 711.712C520.38 711.767 520.54 711.908 520.798 712.127C521.314 712.566 522.219 713.315 523.501 714.304C526.068 716.285 530.124 719.212 535.575 722.538C546.5 729.203 562.849 737.357 583.953 742.811C625.361 753.511 687.694 754.542 767.01 708.272ZM638.142 467.5C704.962 467.5 759.23 521.245 760.074 587.865L760.084 589.441C760.084 656.262 706.339 710.53 639.719 711.374L638.142 711.384C570.796 711.384 516.2 656.788 516.2 589.441L516.21 587.865C517.047 521.77 570.471 468.347 636.566 467.51L638.142 467.5ZM638.142 523.999C602 523.999 572.7 553.299 572.7 589.441C572.7 625.584 602 654.884 638.142 654.884C674.285 654.883 703.585 625.584 703.585 589.441C703.585 553.299 674.285 523.999 638.142 523.999ZM1015.97 484.615C1031.58 484.615 1044.22 497.264 1044.22 512.865C1044.22 582.432 987.768 638.766 918.201 638.767C848.634 638.767 792.178 582.432 792.178 512.865C792.178 497.263 804.826 484.615 820.428 484.615C836.029 484.615 848.677 497.263 848.678 512.865C848.678 551.161 879.771 582.267 918.201 582.267C956.631 582.266 987.724 551.161 987.724 512.865C987.724 497.263 1000.37 484.615 1015.97 484.615Z" fill="#FF6000"/>
<path d="M758.924 436.37C759.558 437.006 759.875 437.324 760.156 437.977C760.352 438.433 760.489 439.315 760.441 439.809C760.372 440.516 760.166 440.915 759.755 441.714C756.467 448.104 746.632 462.94 724.983 466.308C703.329 469.676 689.454 458.529 684.381 453.439C683.748 452.803 683.431 452.486 683.15 451.833C682.954 451.377 682.817 450.495 682.865 450.001C682.934 449.294 683.14 448.895 683.551 448.096C686.839 441.707 696.673 426.87 718.323 423.502C739.973 420.134 753.85 431.281 758.924 436.37Z" fill="#FF6000"/>
<path fill-rule="evenodd" clip-rule="evenodd" d="M1687.47 876.95C1694.06 876.95 1699.93 878.203 1705.07 880.707C1707.87 881.969 1710.37 883.531 1712.58 885.389V884.605C1712.58 881.469 1715.12 878.927 1718.26 878.927H1736.56C1739.7 878.927 1742.24 881.469 1742.24 884.605V969.283C1742.24 979.169 1739.93 987.737 1735.32 994.986C1730.7 1002.24 1724.38 1007.9 1716.34 1011.99C1708.3 1016.08 1699.14 1018.12 1688.85 1018.12C1678.31 1018.12 1669.02 1016.27 1660.98 1012.58C1655.03 1009.91 1650.02 1006.37 1645.93 1001.99C1643.59 999.465 1643.97 995.584 1646.4 993.149L1655.3 984.251C1658.25 981.306 1663.04 981.597 1666.28 984.211C1668.17 985.738 1670.16 987.023 1672.25 988.065C1676.6 990.174 1681.8 991.23 1687.87 991.23C1695.38 991.23 1701.25 989.385 1705.46 985.694C1709.81 982.003 1711.99 976.796 1711.99 970.074V963.999C1709.93 965.646 1707.62 967.081 1705.07 968.295C1699.79 970.799 1693.93 972.051 1687.47 972.051C1678.64 972.051 1670.8 969.943 1663.94 965.725C1657.09 961.507 1651.68 955.772 1647.73 948.522C1643.78 941.273 1641.8 933.233 1641.8 924.402C1641.8 915.439 1643.78 907.398 1647.73 900.28C1651.68 893.03 1657.09 887.363 1663.94 883.277C1670.8 879.059 1678.64 876.95 1687.47 876.95ZM1693.2 903.444C1689.12 903.444 1685.49 904.367 1682.33 906.212C1679.17 908.058 1676.73 910.561 1675.01 913.725C1673.3 916.888 1672.44 920.447 1672.44 924.402C1672.44 928.092 1673.3 931.585 1675.01 934.88C1676.73 938.044 1679.1 940.549 1682.13 942.394C1685.3 944.239 1688.99 945.162 1693.2 945.162C1697.42 945.162 1701.05 944.24 1704.08 942.394C1707.24 940.549 1709.61 938.11 1711.2 935.079C1712.91 931.915 1713.77 928.356 1713.77 924.402C1713.77 920.447 1712.91 916.888 1711.2 913.725C1709.61 910.562 1707.24 908.058 1704.08 906.212C1701.05 904.367 1697.42 903.444 1693.2 903.444Z" fill="#FF6000"/>
<path d="M1246.01 833.255C1257.08 833.255 1266.9 835.034 1275.46 838.593C1279.44 840.221 1283.19 842.125 1286.7 844.306C1293.51 848.533 1293.58 857.889 1287.94 863.582C1282.21 869.368 1272.79 868.965 1265.41 865.518C1264.94 865.302 1264.47 865.092 1264 864.889C1258.86 862.649 1252.86 861.528 1246.01 861.528C1239.94 861.528 1234.34 862.582 1229.2 864.691C1224.19 866.668 1219.84 869.569 1216.15 873.391C1212.59 877.214 1209.76 881.827 1207.65 887.231C1205.67 892.636 1204.68 898.567 1204.68 905.026C1204.68 911.616 1205.67 917.613 1207.65 923.017C1209.76 928.421 1212.59 933.035 1216.15 936.857C1219.84 940.679 1224.19 943.645 1229.2 945.754C1234.34 947.863 1239.94 948.919 1246.01 948.919C1253.12 948.919 1259.32 947.798 1264.59 945.557C1265.2 945.298 1265.8 945.027 1266.39 944.745C1273.65 941.276 1282.9 940.929 1288.59 946.619C1294.37 952.404 1294.22 961.978 1287.23 966.23C1283.71 968.373 1279.98 970.248 1276.06 971.854C1267.49 975.413 1257.54 977.192 1246.2 977.192C1235.79 977.192 1226.1 975.413 1217.14 971.854C1208.31 968.163 1200.53 963.022 1193.81 956.431C1187.22 949.841 1182.08 942.196 1178.39 933.497C1174.69 924.666 1172.85 915.175 1172.85 905.026C1172.85 894.877 1174.69 885.452 1178.39 876.753C1182.08 867.921 1187.22 860.276 1193.81 853.817C1200.4 847.359 1208.11 842.35 1216.94 838.791C1225.9 835.1 1235.59 833.255 1246.01 833.255Z" fill="#FF6000"/>
<path fill-rule="evenodd" clip-rule="evenodd" d="M1471.94 876.753C1481.43 876.753 1489.8 878.796 1497.05 882.882C1504.3 886.968 1509.96 892.636 1514.05 899.885C1518.27 907.134 1520.38 915.438 1520.38 924.797C1520.38 926.51 1520.25 928.356 1519.98 930.333C1519.71 934.174 1516.24 936.864 1512.39 936.873L1450.12 937.021C1450.56 938.571 1451.11 940.033 1451.77 941.405C1453.88 945.359 1456.78 948.458 1460.47 950.698C1464.29 952.807 1468.77 953.861 1473.91 953.861C1478.66 953.861 1482.94 953.07 1486.77 951.488C1492.98 948.704 1500.92 948.049 1505.74 952.863C1510.09 957.22 1510.45 964.369 1505.44 967.961C1502.62 969.988 1499.56 971.68 1496.26 973.039C1489.53 975.807 1482.15 977.192 1474.11 977.192C1463.7 977.192 1454.41 975.082 1446.23 970.864C1438.19 966.515 1431.87 960.518 1427.25 952.873C1422.64 945.228 1420.33 936.594 1420.33 926.972C1420.33 917.35 1422.58 908.783 1427.06 901.27C1431.67 893.625 1437.86 887.627 1445.64 883.277C1453.42 878.927 1462.18 876.753 1471.94 876.753ZM1472.14 899.885C1467.39 899.885 1463.24 901.005 1459.68 903.246C1456.25 905.355 1453.55 908.387 1451.57 912.342C1451 913.564 1450.52 914.868 1450.13 916.254L1492.12 916.137C1491.72 914.304 1491.18 912.643 1490.52 911.155C1488.94 907.464 1486.57 904.696 1483.4 902.851C1480.37 900.874 1476.62 899.885 1472.14 899.885Z" fill="#FF6000"/>
<path d="M1343.77 886.077C1345.67 884.396 1347.77 882.935 1350.09 881.695C1355.76 878.532 1362.29 876.95 1369.67 876.95C1377.18 876.95 1383.77 878.532 1389.44 881.695C1395.11 884.727 1399.46 889.011 1402.49 894.547C1405.65 899.951 1407.23 906.277 1407.23 913.527V959.892C1407.23 968.245 1400.46 975.017 1392.11 975.017C1383.75 975.017 1376.98 968.245 1376.98 959.892V920.249C1376.98 915.241 1375.4 911.22 1372.24 908.189C1369.2 905.026 1365.32 903.444 1360.57 903.444C1357.28 903.444 1354.38 904.169 1351.87 905.619C1349.37 906.937 1347.39 908.914 1345.94 911.55C1344.49 914.054 1343.77 916.954 1343.77 920.249V959.891C1343.77 968.245 1336.99 975.017 1328.64 975.017C1320.29 975.017 1313.52 968.245 1313.52 959.891V846.601C1313.52 838.247 1320.29 831.475 1328.64 831.475C1336.99 831.475 1343.77 838.247 1343.77 846.601V886.077Z" fill="#FF6000"/>
<path d="M1592.12 876.95C1599.24 876.95 1605.5 878.664 1610.9 882.09C1616.44 885.386 1620.79 889.801 1623.95 895.337C1627.11 900.873 1628.7 906.936 1628.7 913.527V959.891C1628.7 968.245 1621.93 975.017 1613.57 975.017C1605.22 975.017 1598.45 968.245 1598.45 959.891V920.249C1598.45 915.241 1596.86 911.22 1593.7 908.189C1590.67 905.026 1586.78 903.444 1582.04 903.444C1578.74 903.444 1575.84 904.169 1573.34 905.619C1570.83 906.937 1568.85 908.914 1567.4 911.55C1565.96 914.054 1565.23 916.954 1565.23 920.249V959.891C1565.23 968.245 1558.46 975.017 1550.1 975.017C1541.75 975.017 1534.98 968.245 1534.98 959.891V884.605C1534.98 881.469 1537.52 878.927 1540.66 878.927H1559.55C1562.69 878.927 1565.23 881.469 1565.23 884.605V886.455C1567.29 884.614 1569.6 883.028 1572.15 881.695C1578.08 878.532 1584.74 876.95 1592.12 876.95Z" fill="#FF6000"/>
<path fill-rule="evenodd" clip-rule="evenodd" d="M1410.22 686.758C1416.68 686.758 1422.48 688.011 1427.62 690.516C1431.08 692.158 1434.11 694.227 1436.72 696.72V694.413C1436.72 691.278 1439.26 688.736 1442.4 688.736H1460.7C1463.83 688.736 1466.38 691.278 1466.38 694.413V784.826H1444.51C1440.21 784.826 1436.72 781.337 1436.72 777.033C1434.19 779.422 1431.23 781.428 1427.82 783.046C1422.55 785.55 1416.68 786.802 1410.22 786.802C1401.39 786.802 1393.48 784.627 1386.5 780.278C1379.64 775.928 1374.17 769.997 1370.09 762.483C1366.13 754.97 1364.16 746.402 1364.16 736.78C1364.16 727.158 1366.13 718.591 1370.09 711.078C1374.17 703.565 1379.64 697.633 1386.5 693.284C1393.48 688.934 1401.39 686.758 1410.22 686.758ZM1416.55 714.043C1412.33 714.043 1408.58 715.032 1405.28 717.009C1402.12 718.855 1399.55 721.491 1397.57 724.918C1395.73 728.345 1394.8 732.299 1394.8 736.78C1394.8 741.13 1395.73 745.018 1397.57 748.445C1399.42 751.872 1401.99 754.575 1405.28 756.552C1408.58 758.53 1412.27 759.517 1416.35 759.517C1422.81 759.517 1428.02 757.409 1431.97 753.191C1435.93 748.841 1437.9 743.371 1437.9 736.78C1437.9 732.299 1436.98 728.345 1435.14 724.918C1433.42 721.491 1430.92 718.854 1427.62 717.009C1424.46 715.032 1420.77 714.043 1416.55 714.043Z" fill="#FF6000"/>
<path d="M1256.85 712.355L1289.42 761.458C1296.06 771.461 1288.89 784.826 1276.88 784.826C1271.69 784.826 1266.87 782.154 1264.12 777.757L1237.44 735.097L1209.16 778.283C1206.49 782.366 1201.94 784.826 1197.06 784.826C1185.4 784.826 1178.53 771.734 1185.15 762.137L1219.14 712.916L1256.85 712.355Z" fill="#FF6000"/>
<path d="M1348.79 769.701C1348.79 778.054 1342.01 784.826 1333.66 784.826C1325.31 784.826 1318.54 778.054 1318.54 769.701V703.861C1318.54 695.508 1325.31 688.736 1333.66 688.736C1342.01 688.736 1348.79 695.508 1348.79 703.861V769.701Z" fill="#FF6000"/>
<path d="M1544.81 686.758C1551.93 686.758 1558.19 688.472 1563.6 691.899C1569.13 695.194 1573.48 699.61 1576.65 705.146C1579.81 710.682 1581.39 716.745 1581.39 723.335V769.7C1581.39 778.054 1574.62 784.826 1566.27 784.826C1557.91 784.826 1551.14 778.054 1551.14 769.7V730.058C1551.14 725.049 1549.56 721.029 1546.4 717.997C1543.36 714.834 1539.48 713.253 1534.73 713.253C1531.44 713.253 1528.54 713.978 1526.03 715.428C1523.53 716.746 1521.55 718.722 1520.1 721.359C1518.65 723.863 1517.93 726.763 1517.92 730.058V769.701C1517.92 778.054 1511.15 784.826 1502.8 784.826C1494.45 784.826 1487.68 778.054 1487.68 769.701V694.413C1487.68 691.278 1490.22 688.736 1493.35 688.736H1512.25C1515.38 688.736 1517.92 691.278 1517.92 694.413V696.265C1519.99 694.424 1522.3 692.836 1524.85 691.504C1530.78 688.341 1537.43 686.758 1544.81 686.758Z" fill="#FF6000"/>
<path d="M1333.76 642.272C1338.5 642.272 1342.39 643.855 1345.43 647.018C1348.46 650.181 1349.97 654.135 1349.97 658.88C1349.97 663.493 1348.46 667.448 1345.43 670.743C1342.39 673.907 1338.5 675.489 1333.76 675.489C1329.01 675.489 1325.06 673.907 1321.9 670.743C1318.87 667.448 1317.35 663.493 1317.35 658.88C1317.35 654.135 1318.87 650.181 1321.9 647.018C1325.06 643.855 1329.01 642.272 1333.76 642.272Z" fill="#FF6000"/>
<path fill-rule="evenodd" clip-rule="evenodd" d="M1556.56 496.567C1563.15 496.567 1569.02 497.82 1574.16 500.324C1576.96 501.586 1579.46 503.149 1581.67 505.006V504.222C1581.67 501.086 1584.21 498.545 1587.35 498.545H1605.65C1608.79 498.545 1611.33 501.086 1611.33 504.222V588.9C1611.33 598.786 1609.02 607.354 1604.41 614.603C1599.8 621.853 1593.47 627.52 1585.43 631.606C1577.39 635.692 1568.23 637.735 1557.95 637.735C1547.4 637.735 1538.11 635.89 1530.07 632.2C1525.93 630.335 1522.23 628.055 1518.99 625.358C1513.92 621.132 1514.69 613.571 1519.36 608.899C1525.01 603.25 1534.19 604.11 1541.34 607.683C1545.69 609.792 1550.89 610.847 1556.96 610.847C1564.47 610.847 1570.34 609.001 1574.55 605.311C1578.9 601.62 1581.08 596.414 1581.08 589.691V583.616C1579.02 585.264 1576.71 586.698 1574.16 587.912C1568.89 590.416 1563.02 591.668 1556.56 591.668C1547.73 591.668 1539.89 589.56 1533.03 585.342C1526.18 581.124 1520.77 575.389 1516.82 568.139C1512.87 560.89 1510.89 552.85 1510.89 544.019C1510.89 535.056 1512.87 527.015 1516.82 519.897C1520.77 512.648 1526.18 506.98 1533.03 502.894C1539.89 498.676 1547.73 496.567 1556.56 496.567ZM1562.3 523.061C1558.21 523.061 1554.58 523.984 1551.42 525.829C1548.26 527.675 1545.82 530.179 1544.11 533.342C1542.39 536.505 1541.54 540.065 1541.54 544.019C1541.54 547.709 1542.39 551.202 1544.11 554.498C1545.82 557.661 1548.19 560.166 1551.22 562.012C1554.39 563.857 1558.08 564.78 1562.3 564.78C1566.51 564.779 1570.14 563.857 1573.17 562.012C1576.33 560.166 1578.71 557.727 1580.29 554.696C1582 551.532 1582.86 547.973 1582.86 544.019C1582.86 540.065 1582 536.505 1580.29 533.342C1578.71 530.179 1576.33 527.675 1573.17 525.829C1570.14 523.984 1566.51 523.062 1562.3 523.061Z" fill="#FF6000"/>
<path fill-rule="evenodd" clip-rule="evenodd" d="M1326.62 496.567C1333.08 496.567 1338.88 497.82 1344.02 500.324C1347.48 501.967 1350.51 504.036 1353.11 506.528V504.222C1353.11 501.086 1355.66 498.545 1358.79 498.545H1377.09C1380.23 498.545 1382.77 501.086 1382.77 504.222V590.397C1382.77 592.737 1380.87 594.634 1378.53 594.634H1360.91C1356.6 594.634 1353.11 591.145 1353.11 586.842C1350.59 589.23 1347.62 591.236 1344.22 592.854C1338.94 595.359 1333.08 596.611 1326.62 596.611C1317.79 596.611 1309.88 594.436 1302.89 590.086C1296.04 585.737 1290.57 579.805 1286.48 572.292C1282.53 564.779 1280.55 556.211 1280.55 546.589C1280.55 536.967 1282.53 528.4 1286.48 520.887C1290.57 513.374 1296.04 507.442 1302.89 503.092C1309.88 498.743 1317.79 496.567 1326.62 496.567ZM1332.95 523.852C1328.73 523.852 1324.97 524.841 1321.68 526.818C1318.51 528.663 1315.94 531.3 1313.97 534.727C1312.12 538.154 1311.2 542.107 1311.2 546.589C1311.2 550.938 1312.12 554.827 1313.97 558.254C1315.81 561.681 1318.38 564.384 1321.68 566.361C1324.97 568.338 1328.66 569.326 1332.75 569.326C1339.21 569.326 1344.42 567.218 1348.37 563C1352.32 558.65 1354.3 553.179 1354.3 546.589C1354.3 542.108 1353.38 538.154 1351.53 534.727C1349.82 531.3 1347.31 528.663 1344.02 526.818C1340.86 524.841 1337.16 523.852 1332.95 523.852Z" fill="#FF6000"/>
<path d="M1211.01 558.833C1211.01 563.537 1214.82 567.349 1219.53 567.349H1259.25C1266.79 567.349 1272.89 573.457 1272.89 580.992C1272.89 588.526 1266.79 594.634 1259.25 594.634H1206.94C1192.04 594.634 1179.97 582.56 1179.97 567.667V470.567C1179.97 461.996 1186.92 455.047 1195.49 455.047C1204.06 455.047 1211.01 461.996 1211.01 470.567V558.833Z" fill="#FF6000"/>
<path d="M1461.21 496.567C1468.33 496.567 1474.59 498.281 1479.99 501.708C1485.53 505.003 1489.88 509.419 1493.04 514.954C1496.21 520.49 1497.79 526.554 1497.79 533.144V579.509C1497.79 587.862 1491.02 594.634 1482.66 594.634C1474.31 594.634 1467.54 587.862 1467.54 579.509V539.866C1467.54 534.858 1465.96 530.838 1462.79 527.806C1459.76 524.643 1455.87 523.062 1451.13 523.061C1447.83 523.061 1444.93 523.786 1442.43 525.236C1439.92 526.554 1437.95 528.531 1436.5 531.167C1435.05 533.672 1434.32 536.571 1434.32 539.866V579.509C1434.32 587.862 1427.55 594.634 1419.2 594.634C1410.84 594.634 1404.07 587.862 1404.07 579.509V504.222C1404.07 501.086 1406.61 498.545 1409.75 498.545H1428.64C1431.78 498.545 1434.32 501.086 1434.32 504.222V506.072C1436.39 504.231 1438.69 502.645 1441.24 501.313C1447.17 498.149 1453.83 496.567 1461.21 496.567Z" fill="#FF6000"/>
<path d="M1256.85 713.451L1289.42 664.348C1296.06 654.345 1288.89 640.98 1276.88 640.98C1271.69 640.98 1266.87 643.652 1264.12 648.049L1237.44 690.708L1209.16 647.523C1206.49 643.44 1201.94 640.98 1197.06 640.98C1185.4 640.98 1178.53 654.072 1185.15 663.669L1219.14 712.89L1256.85 713.451Z" fill="#FF6000"/>
</svg>
